<svg xmlns="http://www.w3.org/2000/svg" xmlns:svg="http://www.w3.org/2000/svg" id="svg857" width="256" height="256" version="1.1" viewBox="0 0 256 256" xml:space="preserve" style="clip-rule:evenodd;fill-rule:evenodd;stroke-linejoin:round;stroke-miterlimit:1.41421"><metadata id="metadata863"/><g id="g855" transform="translate(0,-213)"><g id="favicon_color" transform="matrix(3.85779,0,0,3.85779,-459.077,-1271.68)"><rect id="rect833" width="66.359" height="66.359" x="119" y="385" style="fill:none"/><clipPath id="_clip1"><rect id="rect835" width="66.359" height="66.359" x="119" y="385"/></clipPath><g id="g852" clip-path="url(#_clip1)"><g id="g850" transform="matrix(0.57336,0,0,0.57336,23.1139,331.755)"><g id="g840" transform="matrix(1.65888,0,0,1.65888,278.227,196.518)"><path id="path838" d="m 0,-26.524 c -2.206,-3.821 -5.416,-6.701 -9.105,-8.499 -0.472,2.52 -1.365,5.004 -2.718,7.348 l -2.135,3.705 c 1.422,0.79 2.66,1.953 3.533,3.465 2.565,4.442 1.042,10.124 -3.401,12.689 -4.442,2.565 -10.124,1.043 -12.689,-3.4 l -4.308,-7.45 h -6.952 l -3.476,6.02 4.311,7.449 C -31.05,5.004 -18.007,8.499 -7.806,2.609 2.394,-3.28 5.889,-16.323 0,-26.524" style="fill:#b4e3f9;fill-rule:nonzero"/></g><g id="g844" transform="matrix(1.65888,0,0,1.65888,242.791,151.553)"><path id="path842" d="m 0,-30.703 c -10.201,-5.889 -23.244,-2.394 -29.133,7.806 -2.207,3.821 -3.095,8.041 -2.808,12.135 2.418,-0.851 5.016,-1.32 7.723,-1.32 l 4.275,-0.004 c -0.027,-1.626 0.362,-3.28 1.234,-4.791 2.566,-4.443 8.247,-5.966 12.69,-3.4 4.443,2.565 5.965,8.246 3.4,12.689 L -6.916,-0.132 -3.441,5.889 3.511,5.888 7.806,-1.57 C 13.696,-11.77 10.201,-24.814 0,-30.703" style="fill:#70caf2;fill-rule:nonzero"/></g><g id="g848" transform="matrix(1.65888,0,0,1.65888,214.076,150.846)"><path id="path846" d="m 0,23.335 -2.142,-3.701 c -1.395,0.837 -3.021,1.327 -4.766,1.327 -5.131,0 -9.29,-4.159 -9.29,-9.29 0,-5.13 4.159,-9.289 9.29,-9.289 l 8.605,-0.006 3.477,-6.02 -3.477,-6.02 -8.606,0.008 c -11.779,0 -21.327,9.549 -21.327,21.327 0,11.779 9.548,21.328 21.327,21.328 4.411,0 8.508,-1.34 11.909,-3.633 C 3.054,27.697 1.353,25.678 0,23.335" style="fill:#3f79ad;fill-rule:nonzero"/></g></g></g></g></g></svg>